<?xml version="1.0" encoding="iso-8859-1"?>
<!-- Generator: Adobe Illustrator 19.0.0, SVG Export Plug-In . SVG Version: 6.00 Build 0)  -->
<svg version="1.1" id="Capa_1" xmlns="http://www.w3.org/2000/svg" xmlns:xlink="http://www.w3.org/1999/xlink" x="0px" y="0px"
	 viewBox="0 0 512 512" style="enable-background:new 0 0 512 512;" xml:space="preserve">
<g>
	<g>
		<path d="M473.6,0H38.4C17.229,0,0,17.229,0,38.4v435.2C0,494.771,17.229,512,38.4,512h435.2c21.171,0,38.4-17.229,38.4-38.4V38.4
			C512,17.229,494.771,0,473.6,0z M494.933,473.6c0,11.759-9.566,21.333-21.333,21.333H38.4c-11.759,0-21.333-9.574-21.333-21.333
			V38.4c0-11.759,9.574-21.333,21.333-21.333h435.2c11.759,0,21.333,9.574,21.333,21.333V473.6z"/>
	</g>
</g>
<g>
	<g>
		<path d="M76.8,34.133H42.667c-4.71,0-8.533,3.823-8.533,8.533V76.8c0,4.71,3.823,8.533,8.533,8.533H76.8
			c4.71,0,8.533-3.823,8.533-8.533V42.667C85.333,37.956,81.51,34.133,76.8,34.133z M68.267,68.267H51.2V51.2h17.067V68.267z"/>
	</g>
</g>
<g>
	<g>
		<path d="M145.067,34.133h-34.133c-4.71,0-8.533,3.823-8.533,8.533V76.8c0,4.71,3.823,8.533,8.533,8.533h34.133
			c4.71,0,8.533-3.823,8.533-8.533V42.667C153.6,37.956,149.777,34.133,145.067,34.133z M136.533,68.267h-17.067V51.2h17.067V68.267
			z"/>
	</g>
</g>
<g>
	<g>
		<path d="M213.333,34.133H179.2c-4.71,0-8.533,3.823-8.533,8.533V76.8c0,4.71,3.823,8.533,8.533,8.533h34.133
			c4.71,0,8.533-3.823,8.533-8.533V42.667C221.867,37.956,218.044,34.133,213.333,34.133z M204.8,68.267h-17.067V51.2H204.8V68.267z
			"/>
	</g>
</g>
<g>
	<g>
		<path d="M473.6,0H38.4C17.229,0,0,17.229,0,38.4v72.533c0,4.71,3.823,8.533,8.533,8.533h494.933c4.71,0,8.533-3.823,8.533-8.533
			V38.4C512,17.229,494.771,0,473.6,0z M494.933,102.4H17.067v-64c0-11.759,9.574-21.333,21.333-21.333h435.2
			c11.759,0,21.333,9.574,21.333,21.333V102.4z"/>
	</g>
</g>
<g>
	<g>
		<path d="M238.933,324.267H51.2c-4.71,0-8.533,3.823-8.533,8.533c0,4.71,3.823,8.533,8.533,8.533h187.733
			c4.71,0,8.533-3.823,8.533-8.533C247.467,328.09,243.644,324.267,238.933,324.267z"/>
	</g>
</g>
<g>
	<g>
		<path d="M238.933,358.4H51.2c-4.71,0-8.533,3.823-8.533,8.533s3.823,8.533,8.533,8.533h187.733c4.71,0,8.533-3.823,8.533-8.533
			S243.644,358.4,238.933,358.4z"/>
	</g>
</g>
<g>
	<g>
		<path d="M187.733,290.133H51.2c-4.71,0-8.533,3.823-8.533,8.533S46.49,307.2,51.2,307.2h136.533c4.71,0,8.533-3.823,8.533-8.533
			S192.444,290.133,187.733,290.133z"/>
	</g>
</g>
<g>
	<g>
		<path d="M238.933,392.533H51.2c-4.71,0-8.533,3.823-8.533,8.533S46.49,409.6,51.2,409.6h187.733c4.71,0,8.533-3.823,8.533-8.533
			S243.644,392.533,238.933,392.533z"/>
	</g>
</g>
<g>
	<g>
		<path d="M238.933,426.667H51.2c-4.71,0-8.533,3.823-8.533,8.533s3.823,8.533,8.533,8.533h187.733c4.71,0,8.533-3.823,8.533-8.533
			S243.644,426.667,238.933,426.667z"/>
	</g>
</g>
<g>
	<g>
		<path d="M238.933,460.8H51.2c-4.71,0-8.533,3.823-8.533,8.533s3.823,8.533,8.533,8.533h187.733c4.71,0,8.533-3.823,8.533-8.533
			S243.644,460.8,238.933,460.8z"/>
	</g>
</g>
<g>
	<g>
		<path d="M460.8,290.133H281.6c-4.71,0-8.533,3.823-8.533,8.533v170.667c0,4.71,3.823,8.533,8.533,8.533h179.2
			c4.71,0,8.533-3.823,8.533-8.533V298.667C469.333,293.956,465.51,290.133,460.8,290.133z M452.267,460.8H290.133V307.2h162.133
			V460.8z"/>
	</g>
</g>
<g>
	<g>
		<path d="M355.9,369.434c-3.337-3.336-8.73-3.336-12.066,0L309.7,403.567c-3.336,3.337-3.336,8.73,0,12.066
			c1.664,1.664,3.849,2.5,6.033,2.5c2.185,0,4.369-0.836,6.033-2.5L355.9,381.5C359.236,378.163,359.236,372.77,355.9,369.434z"/>
	</g>
</g>
<g>
	<g>
		<path d="M390.033,403.567L355.9,369.434c-3.337-3.336-8.73-3.337-12.066,0c-3.337,3.337-3.337,8.73,0,12.066l34.133,34.133
			c1.664,1.664,3.849,2.5,6.033,2.5c2.185,0,4.369-0.836,6.033-2.5C393.37,412.297,393.37,406.903,390.033,403.567z"/>
	</g>
</g>
<g>
	<g>
		<path d="M398.566,352.367c-3.337-3.337-8.73-3.337-12.066,0l-29.867,29.867c-3.336,3.337-3.336,8.73,0,12.066
			c1.664,1.664,3.849,2.5,6.033,2.5s4.369-0.836,6.033-2.5l29.867-29.867C401.903,361.097,401.903,355.703,398.566,352.367z"/>
	</g>
</g>
<g>
	<g>
		<path d="M432.7,386.5l-34.133-34.133c-3.337-3.337-8.73-3.337-12.066,0c-3.337,3.337-3.337,8.73,0,12.066l34.133,34.133
			c1.664,1.664,3.849,2.5,6.033,2.5s4.369-0.836,6.033-2.5C436.036,395.23,436.036,389.837,432.7,386.5z"/>
	</g>
</g>
<g>
	<g>
		<path d="M460.8,136.533H51.2c-4.71,0-8.533,3.823-8.533,8.533v119.467c0,4.71,3.823,8.533,8.533,8.533h409.6
			c4.71,0,8.533-3.823,8.533-8.533V145.067C469.333,140.356,465.51,136.533,460.8,136.533z M452.267,256H59.733V153.6h392.533V256z"
			/>
	</g>
</g>
<g>
	<g>
		<path d="M349.867,179.2h-204.8c-4.71,0-8.533,3.823-8.533,8.533s3.823,8.533,8.533,8.533h204.8c4.71,0,8.533-3.823,8.533-8.533
			S354.577,179.2,349.867,179.2z"/>
	</g>
</g>
<g>
	<g>
		<path d="M392.533,213.333H119.467c-4.71,0-8.533,3.823-8.533,8.533c0,4.71,3.823,8.533,8.533,8.533h273.067
			c4.71,0,8.533-3.823,8.533-8.533C401.067,217.156,397.244,213.333,392.533,213.333z"/>
	</g>
</g>
<g>
</g>
<g>
</g>
<g>
</g>
<g>
</g>
<g>
</g>
<g>
</g>
<g>
</g>
<g>
</g>
<g>
</g>
<g>
</g>
<g>
</g>
<g>
</g>
<g>
</g>
<g>
</g>
<g>
</g>
</svg>
